<svg width="40" height="44" viewBox="0 0 40 44" fill="none" xmlns="http://www.w3.org/2000/svg">
<path d="M20 0C6.4 0 3 12.3 3 16V24H5V27H7.80078C8.90078 28.1 10.5 29.3008 12 30.3008L12.0996 30.4004C13.2391 31.274 14.167 31.9365 15 32.5098V37C15 37.3 14.8996 37.6008 14.5996 37.8008L12.5996 39.0996L1.69922 42C1.19922 42.1 0.9 42.6992 1 43.1992C1.1 43.6992 1.69922 44.0004 2.19922 43.9004L13.1992 40.9004C13.2992 40.9004 13.4 40.8008 13.5 40.8008L15.6992 39.4004C15.6992 39.4004 15.8008 39.4008 15.8008 39.3008C16.5008 38.7008 17 37.8004 17 36.9004V33.8105C18.9913 34.9888 19.6825 35 20 35C20.3175 35 21.0087 34.9888 23 33.8105V37C23 37.9 23.3992 38.8004 24.1992 39.4004C24.1992 39.4004 24.3008 39.4 24.3008 39.5L26.5 40.9004C26.6 41.0004 26.7008 41 26.8008 41L37.8008 44H38.0996C38.4996 44 38.8996 43.7008 39.0996 43.3008C39.0996 42.7008 38.8008 42.2 38.3008 42L27.4004 39L25.4004 37.6992C25.1004 37.5992 25 37.3 25 37V32.5098C25.833 31.9365 26.7609 31.274 27.9004 30.4004L28 30.3008C29.5 29.3008 31.0992 28.2 32.1992 27H35V24H37V16C37 12.3 33.6 0 20 0ZM24.5 10.6992C24.7 12.6992 25.0992 15.1996 25.1992 16.0996L25.3008 17C26.1008 16.7 27.4 15.4992 28 14.1992C28.7 16.0992 29.3992 18.2992 29.6992 19.6992C29.2992 22.7992 28.3996 25.7992 27.5996 27.6992C27.3996 28.0992 27.0992 28.4008 26.6992 28.8008C22.3992 32.1008 20.4 33 20 33C19.6 33 17.6004 32.1008 13.4004 28.8008C13.1004 28.5008 12.7996 28.0992 12.5996 27.6992C11.8996 26.1992 10.9004 23.0996 10.4004 19.5996C10.8004 18.6996 11.9996 16.4008 13.0996 14.3008C13.0996 14.3008 13 17.3 13 18C14.4 17.8 17.5992 14.7004 18.6992 12.9004L18 17.6992L19.4004 16.5996C19.6004 16.4996 22.5 14.1992 24.5 10.6992ZM11 19C11 19 11.3 19.9996 12 20.5996V21C12 21.6 12.5 22.9 13 23H16C16.5 22.8 17 21.6 17 21V20C16.7 19.8 15.5 19.2 12.5 19H11ZM27.5 19C24.5 19.1 23.3 19.7 23 20V21C23 21.6 23.5 22.8 24 23H27C27.5 22.9 28 21.6 28 21V20.5996C28.7 19.9996 29 19 29 19H27.5ZM15.5 20C15.8 20 16 20.2 16 20.5C16 20.8 15.8 21 15.5 21C15.2 21 15 20.8 15 20.5C15 20.2 15.2 20 15.5 20ZM26.5 20C26.8 20 27 20.2 27 20.5C27 20.8 26.8 21 26.5 21C26.2 21 26 20.8 26 20.5C26 20.2 26.2 20 26.5 20ZM20 28C18.6 28 18 28.7 18 29H22C22 28.8 21.4 28 20 28Z" fill="#F6F6F6"/>
</svg>
