<svg width="124" height="124" viewBox="0 0 124 124" fill="none" xmlns="http://www.w3.org/2000/svg">
<path d="M9.3 47H6C2.7 47 0 49.9 0 53.2V71.2C0 74.6 2.7 77 6 77H9.4C14.8 77 18.1 84.9 14.2 88.8L12 91C9.6 93.3 9.6 97.2 12 99.5L24.6 112.2C26.9 114.5 30.7 114.5 33.1 112.2L36.8 108.5C40.6 104.7 47 107.4 47 112.8V118.2C47 121.5 49.7 124 53 124H71C74.3 124 77 121.6 77 118.2V112.8C77 107.5 83.5 104.8 87.2 108.6L90.9 112.3C93.2 114.6 97 114.6 99.4 112.3L112 99.7C114.4 97.3 114.3 93.5 112 91.2L109.8 88.9C105.9 85.1 109.2 77.1 114.6 77.1H118C121.3 77.1 124 74.701 124 71.3V53.3C124 50 121.3 47.1 118 47.1H114.7C109.3 47.1 105.9 39 109.7 35.2L112.099 32.9C114.4 30.6 114.4 26.8 112.099 24.5L99.5 11.9C97.1 9.5 93.3 9.6 91 11.9L88.6 14C84.8 17.9 77 14.7 77 9.2V6.2C77 2.9 74.3 0 71 0H53C49.7 0 47 2.9 47 6.2V9.2C47 14.7 39.2 17.9 35.4 14L33.1 11.7C30.8 9.3 26.9 9.3 24.6 11.7L11.9 24.4C9.6 26.7 9.6 30.5 11.9 32.9L14.3 35.1C18.1 38.9 14.7 47 9.3 47ZM62.2 38.2C75.5 38.2 86.2 48.9 86.2 62.2C86.2 75.5 75.5 86.2 62.2 86.2C48.9 86.2 38.2 75.5 38.2 62.2C38.2 48.9 49 38.2 62.2 38.2Z" fill="#F6F6F6"/>
</svg>
