<svg width="251" height="235" viewBox="0 0 251 235" fill="none" xmlns="http://www.w3.org/2000/svg">
<path d="M106.135 1.05178C90.5752 4.05313 78.0649 13.3122 71.6108 26.6206C68.3086 33.5745 67.309 37.8789 67.309 45.8859C67.309 59.7451 70.3103 65.9008 86.1739 84.5643C102.486 103.728 107.841 113.387 111.743 130.648C112.393 133.649 113.143 136.301 113.395 136.554C113.696 136.855 114.395 136.954 114.997 136.855C115.996 136.704 116.447 135.705 118.5 129.699C124.199 112.686 129.705 102.978 144.464 84.0619C156.424 68.6497 158.874 64.5468 161.075 55.9915C162.327 51.1873 162.478 42.2317 161.376 37.1266C157.724 19.8631 144.564 6.50369 126.599 1.79894C121.598 0.449989 111.189 0.100632 106.135 1.05178ZM120.247 22.0663C128.053 24.1191 134.208 29.9739 136.608 37.578C137.357 39.9291 137.559 41.6809 137.408 45.3835C137.258 49.6369 137.059 50.5371 135.358 54.0408C128.552 68.5018 109.789 71.7531 98.5312 60.5458C86.0209 48.0355 91.7762 26.8195 108.938 22.0663C111.99 21.2656 117.144 21.2172 120.247 22.0663Z" fill="#F6F6F6"/>
<path d="M223.925 124.994C218.47 126.295 212.266 131.449 210.066 136.602C208.865 139.354 208.765 139.453 206.814 139.453C205.664 139.453 187.651 138.201 166.784 136.702C145.869 135.2 128.404 133.95 128.007 133.95C127.405 133.95 127.257 134.751 127.257 137.954C127.257 140.154 127.407 141.957 127.558 141.957C127.808 141.957 182.849 145.91 205.766 147.562C207.717 147.712 207.717 147.712 208.867 151.316C210.968 157.77 214.322 161.824 219.824 164.525C232.835 170.93 247.846 163.074 250.197 148.664C251.45 141.059 248.045 133.001 241.642 128.399C236.884 124.994 229.78 123.592 223.925 124.994Z" fill="#F6F6F6"/>
<path d="M72.2101 141.756C56.2471 145.407 42.8392 148.411 42.3369 148.46C41.8855 148.46 40.9369 147.46 40.2357 146.259C38.3334 143.056 34.7328 139.603 31.428 137.954C18.4714 131.398 3.20965 139.254 0.807547 153.664C-0.944303 164.224 6.41245 175.031 16.9695 177.433C29.1789 180.286 41.4877 171.529 42.7882 159.17L43.0381 156.668L72.6615 149.911C102.134 143.156 102.234 143.156 102.083 141.904C102.032 141.253 101.933 139.402 101.833 137.801C101.782 136.25 101.632 134.947 101.484 134.998C101.334 135.001 88.1731 138.053 72.2101 141.756Z" fill="#F6F6F6"/>
<path d="M123.248 147.511C123.049 147.812 121.548 148.661 119.946 149.413L116.993 150.765L133.754 174.383C142.962 187.393 150.518 198.2 150.518 198.35C150.518 198.501 149.916 199.401 149.218 200.352C148.516 201.252 147.366 203.305 146.617 204.906C145.416 207.459 145.265 208.359 145.265 213.263C145.265 218.416 145.365 218.967 146.815 222.07C149.567 227.874 153.92 231.676 159.925 233.53C176.689 238.735 192.249 221.872 185.744 205.508C182.09 196.252 172.484 190.797 162.878 192.45C160.927 192.799 158.775 193.1 158.173 193.151C157.273 193.25 154.272 189.349 140.759 170.234C131.753 157.576 124.248 147.167 123.998 147.067C123.799 146.96 123.45 147.159 123.248 147.511Z" fill="#F6F6F6"/>
</svg>
