<svg width="54" height="54" viewBox="0 0 54 54" fill="none" xmlns="http://www.w3.org/2000/svg">
<path d="M53.1 47.3L38.165 32.365C40.9282 28.1655 42.0349 23.0902 41.2709 18.1215C40.5069 13.1529 37.9265 8.64448 34.0293 5.46915C30.1321 2.29381 25.1953 0.677452 20.1748 0.933005C15.1542 1.18856 10.4071 3.29785 6.85246 6.85249C3.29782 10.4071 1.18853 15.1543 0.932974 20.1748C0.677421 25.1953 2.29378 30.1321 5.46912 34.0293C8.64445 37.9265 13.1529 40.5069 18.1215 41.2709C23.0901 42.035 28.1655 40.9282 32.365 38.165L47.3 53.1L53.1 47.3ZM8.15 21.2C8.15 18.619 8.91537 16.0959 10.3493 13.9498C11.7833 11.8038 13.8214 10.1311 16.206 9.1434C18.5906 8.15568 21.2145 7.89724 23.7459 8.40078C26.2774 8.90432 28.6027 10.1472 30.4277 11.9723C32.2528 13.7974 33.4957 16.1226 33.9992 18.6541C34.5028 21.1856 34.2444 23.8095 33.2566 26.194C32.2689 28.5786 30.5963 30.6168 28.4502 32.0507C26.3041 33.4847 23.781 34.25 21.2 34.25C17.7389 34.25 14.4196 32.8751 11.9723 30.4278C9.52491 27.9804 8.15 24.6611 8.15 21.2V21.2Z" fill="#B2B2B2"/>
</svg>
